<mxfile host="Electron" modified="2023-06-03T13:11:34.013Z" agent="Mozilla/5.0 (Windows NT 10.0; Win64; x64) AppleWebKit/537.36 (KHTML, like Gecko) draw.io/21.2.8 Chrome/112.0.5615.165 Electron/24.2.0 Safari/537.36" etag="8zUlHQA4Pt2waLHUT1sc" version="21.2.8" type="device">
  <diagram name="Page-1" id="7e0a89b8-554c-2b80-1dc8-d5c74ca68de4">
    <mxGraphModel dx="3236" dy="606" grid="1" gridSize="10" guides="1" tooltips="1" connect="1" arrows="1" fold="1" page="1" pageScale="1" pageWidth="1100" pageHeight="850" background="none" math="0" shadow="0">
      <root>
        <mxCell id="0" />
        <mxCell id="1" parent="0" />
        <mxCell id="IqF8qVAzn-dB3DnFm8-X-1" value="" style="rounded=0;whiteSpace=wrap;html=1;strokeColor=#000000;fillColor=#FF5555;" parent="1" vertex="1">
          <mxGeometry x="160" y="80" width="1040" height="770" as="geometry" />
        </mxCell>
        <mxCell id="IqF8qVAzn-dB3DnFm8-X-10" value="" style="rounded=0;whiteSpace=wrap;html=1;" parent="1" vertex="1">
          <mxGeometry x="160" y="180" width="1040" height="670" as="geometry" />
        </mxCell>
        <mxCell id="IqF8qVAzn-dB3DnFm8-X-130" value="" style="group" parent="1" vertex="1" connectable="0">
          <mxGeometry x="950" y="490" width="210" height="250" as="geometry" />
        </mxCell>
        <mxCell id="IqF8qVAzn-dB3DnFm8-X-131" value="" style="rounded=0;whiteSpace=wrap;html=1;" parent="IqF8qVAzn-dB3DnFm8-X-130" vertex="1">
          <mxGeometry width="210" height="250" as="geometry" />
        </mxCell>
        <mxCell id="IqF8qVAzn-dB3DnFm8-X-133" value="Ground Beef with Homemade Taco Seasoning Mix" style="text;html=1;strokeColor=none;fillColor=none;align=center;verticalAlign=middle;whiteSpace=wrap;rounded=0;fontSize=16;" parent="IqF8qVAzn-dB3DnFm8-X-130" vertex="1">
          <mxGeometry x="10" y="160" width="190" height="80" as="geometry" />
        </mxCell>
        <mxCell id="IqF8qVAzn-dB3DnFm8-X-134" value="Mexican - Easy" style="text;html=1;strokeColor=none;fillColor=none;align=center;verticalAlign=middle;whiteSpace=wrap;rounded=0;" parent="IqF8qVAzn-dB3DnFm8-X-130" vertex="1">
          <mxGeometry y="120" width="150" height="20" as="geometry" />
        </mxCell>
        <mxCell id="IqF8qVAzn-dB3DnFm8-X-135" value="30mins" style="text;html=1;strokeColor=none;fillColor=none;align=center;verticalAlign=middle;whiteSpace=wrap;rounded=0;" parent="IqF8qVAzn-dB3DnFm8-X-130" vertex="1">
          <mxGeometry x="150" y="120" width="60" height="20" as="geometry" />
        </mxCell>
        <mxCell id="IqF8qVAzn-dB3DnFm8-X-118" value="" style="group" parent="1" vertex="1" connectable="0">
          <mxGeometry x="450" y="490" width="210" height="250" as="geometry" />
        </mxCell>
        <mxCell id="IqF8qVAzn-dB3DnFm8-X-119" value="" style="rounded=0;whiteSpace=wrap;html=1;" parent="IqF8qVAzn-dB3DnFm8-X-118" vertex="1">
          <mxGeometry width="210" height="250" as="geometry" />
        </mxCell>
        <mxCell id="IqF8qVAzn-dB3DnFm8-X-121" value="Ground Beef with Homemade Taco Seasoning Mix" style="text;html=1;strokeColor=none;fillColor=none;align=center;verticalAlign=middle;whiteSpace=wrap;rounded=0;fontSize=16;" parent="IqF8qVAzn-dB3DnFm8-X-118" vertex="1">
          <mxGeometry x="10" y="160" width="190" height="80" as="geometry" />
        </mxCell>
        <mxCell id="IqF8qVAzn-dB3DnFm8-X-122" value="Mexican - Easy" style="text;html=1;strokeColor=none;fillColor=none;align=center;verticalAlign=middle;whiteSpace=wrap;rounded=0;" parent="IqF8qVAzn-dB3DnFm8-X-118" vertex="1">
          <mxGeometry y="120" width="150" height="20" as="geometry" />
        </mxCell>
        <mxCell id="IqF8qVAzn-dB3DnFm8-X-123" value="30mins" style="text;html=1;strokeColor=none;fillColor=none;align=center;verticalAlign=middle;whiteSpace=wrap;rounded=0;" parent="IqF8qVAzn-dB3DnFm8-X-118" vertex="1">
          <mxGeometry x="150" y="120" width="60" height="20" as="geometry" />
        </mxCell>
        <mxCell id="IqF8qVAzn-dB3DnFm8-X-2" value="" style="rounded=0;whiteSpace=wrap;html=1;fillColor=#DD1111;" parent="1" vertex="1">
          <mxGeometry y="80" width="160" height="770" as="geometry" />
        </mxCell>
        <mxCell id="IqF8qVAzn-dB3DnFm8-X-4" value="Cookbook" style="text;html=1;align=center;verticalAlign=middle;whiteSpace=wrap;rounded=0;fillColor=#FFAAAA;fontColor=#333333;strokeColor=#666666;" parent="1" vertex="1">
          <mxGeometry x="20" y="160" width="60" height="30" as="geometry" />
        </mxCell>
        <mxCell id="IqF8qVAzn-dB3DnFm8-X-8" value="Cookbook" style="text;html=1;strokeColor=none;fillColor=none;align=center;verticalAlign=middle;whiteSpace=wrap;rounded=0;fontSize=24;" parent="1" vertex="1">
          <mxGeometry x="650" y="110" width="60" height="30" as="geometry" />
        </mxCell>
        <mxCell id="IqF8qVAzn-dB3DnFm8-X-9" value="" style="shape=image;html=1;verticalLabelPosition=bottom;verticalAlign=top;imageAspect=1;aspect=fixed;image=img/clipart/Gear_128x128.png" parent="1" vertex="1">
          <mxGeometry x="1170" y="90" width="22" height="25.81" as="geometry" />
        </mxCell>
        <mxCell id="IqF8qVAzn-dB3DnFm8-X-32" value="" style="rounded=0;whiteSpace=wrap;html=1;" parent="1" vertex="1">
          <mxGeometry x="490" y="790" width="380" height="20" as="geometry" />
        </mxCell>
        <mxCell id="IqF8qVAzn-dB3DnFm8-X-33" value="" style="triangle;whiteSpace=wrap;html=1;fillColor=#FFFFFF;" parent="1" vertex="1">
          <mxGeometry x="890" y="790" width="30" height="20" as="geometry" />
        </mxCell>
        <mxCell id="IqF8qVAzn-dB3DnFm8-X-34" value="" style="triangle;whiteSpace=wrap;html=1;rotation=-180;fillColor=#FFFFFF;" parent="1" vertex="1">
          <mxGeometry x="400" y="790" width="30" height="20" as="geometry" />
        </mxCell>
        <mxCell id="IqF8qVAzn-dB3DnFm8-X-35" value="" style="rounded=0;whiteSpace=wrap;html=1;fillColor=#FF5555;strokeColor=#6c8ebf;" parent="1" vertex="1">
          <mxGeometry x="450" y="790" width="160" height="20" as="geometry" />
        </mxCell>
        <mxCell id="IqF8qVAzn-dB3DnFm8-X-51" value="" style="group" parent="1" vertex="1" connectable="0">
          <mxGeometry x="20.000000000000004" y="110" width="64.82842712474618" height="30" as="geometry" />
        </mxCell>
        <mxCell id="IqF8qVAzn-dB3DnFm8-X-3" value="______" style="text;html=1;strokeColor=none;fillColor=none;align=center;verticalAlign=middle;whiteSpace=wrap;rounded=0;fontColor=#ffffff;" parent="IqF8qVAzn-dB3DnFm8-X-51" vertex="1">
          <mxGeometry width="60" height="30" as="geometry" />
        </mxCell>
        <mxCell id="IqF8qVAzn-dB3DnFm8-X-6" value="" style="ellipse;shape=doubleEllipse;whiteSpace=wrap;html=1;aspect=fixed;movable=1;resizable=1;rotatable=1;deletable=1;editable=1;locked=0;connectable=1;" parent="IqF8qVAzn-dB3DnFm8-X-51" vertex="1">
          <mxGeometry x="54" y="8" width="8" height="8" as="geometry" />
        </mxCell>
        <mxCell id="IqF8qVAzn-dB3DnFm8-X-7" value="" style="rounded=0;whiteSpace=wrap;html=1;rotation=45;" parent="IqF8qVAzn-dB3DnFm8-X-51" vertex="1">
          <mxGeometry x="59" y="15" width="6" height="2" as="geometry" />
        </mxCell>
        <mxCell id="IqF8qVAzn-dB3DnFm8-X-58" value="" style="group" parent="1" vertex="1" connectable="0">
          <mxGeometry x="450" y="200" width="210" height="250" as="geometry" />
        </mxCell>
        <mxCell id="IqF8qVAzn-dB3DnFm8-X-28" value="" style="rounded=0;whiteSpace=wrap;html=1;" parent="IqF8qVAzn-dB3DnFm8-X-58" vertex="1">
          <mxGeometry width="210" height="250" as="geometry" />
        </mxCell>
        <mxCell id="IqF8qVAzn-dB3DnFm8-X-36" value="" style="rounded=1;whiteSpace=wrap;html=1;strokeWidth=2;fillWeight=4;hachureGap=8;hachureAngle=45;fillColor=#1ba1e2;sketch=1;" parent="IqF8qVAzn-dB3DnFm8-X-58" vertex="1">
          <mxGeometry width="210" height="120" as="geometry" />
        </mxCell>
        <mxCell id="IqF8qVAzn-dB3DnFm8-X-43" value="Ground Beef with Homemade Taco Seasoning Mix" style="text;html=1;strokeColor=none;fillColor=none;align=center;verticalAlign=middle;whiteSpace=wrap;rounded=0;fontSize=16;" parent="IqF8qVAzn-dB3DnFm8-X-58" vertex="1">
          <mxGeometry x="10" y="160" width="190" height="80" as="geometry" />
        </mxCell>
        <mxCell id="IqF8qVAzn-dB3DnFm8-X-53" value="Mexican - Easy" style="text;html=1;strokeColor=none;fillColor=none;align=center;verticalAlign=middle;whiteSpace=wrap;rounded=0;" parent="IqF8qVAzn-dB3DnFm8-X-58" vertex="1">
          <mxGeometry y="120" width="150" height="20" as="geometry" />
        </mxCell>
        <mxCell id="IqF8qVAzn-dB3DnFm8-X-54" value="30mins" style="text;html=1;strokeColor=none;fillColor=none;align=center;verticalAlign=middle;whiteSpace=wrap;rounded=0;" parent="IqF8qVAzn-dB3DnFm8-X-58" vertex="1">
          <mxGeometry x="150" y="120" width="60" height="20" as="geometry" />
        </mxCell>
        <mxCell id="IqF8qVAzn-dB3DnFm8-X-59" value="" style="group;strokeColor=default;strokeWidth=2;" parent="1" vertex="1" connectable="0">
          <mxGeometry x="200" y="200" width="210" height="250" as="geometry" />
        </mxCell>
        <mxCell id="IqF8qVAzn-dB3DnFm8-X-56" value="" style="rounded=0;whiteSpace=wrap;html=1;fillColor=#FFFFFF;" parent="IqF8qVAzn-dB3DnFm8-X-59" vertex="1">
          <mxGeometry width="210.00000000000003" height="250" as="geometry" />
        </mxCell>
        <mxCell id="IqF8qVAzn-dB3DnFm8-X-17" value="" style="group;fontStyle=0;strokeWidth=5;strokeColor=none;" parent="IqF8qVAzn-dB3DnFm8-X-59" vertex="1" connectable="0">
          <mxGeometry x="86.75" y="106.75" width="36.5" height="36.5" as="geometry" />
        </mxCell>
        <mxCell id="IqF8qVAzn-dB3DnFm8-X-12" value="" style="endArrow=none;html=1;rounded=1;strokeWidth=3;strokeColor=#DD1111;" parent="IqF8qVAzn-dB3DnFm8-X-17" edge="1">
          <mxGeometry width="50" height="50" relative="1" as="geometry">
            <mxPoint x="-10" y="17.75" as="sourcePoint" />
            <mxPoint x="46" y="17.75" as="targetPoint" />
          </mxGeometry>
        </mxCell>
        <mxCell id="IqF8qVAzn-dB3DnFm8-X-13" value="" style="endArrow=none;html=1;rounded=1;strokeWidth=3;strokeColor=#DD1111;" parent="IqF8qVAzn-dB3DnFm8-X-17" edge="1">
          <mxGeometry width="50" height="50" relative="1" as="geometry">
            <mxPoint x="17.750000000000004" y="-10" as="sourcePoint" />
            <mxPoint x="17.750000000000004" y="46" as="targetPoint" />
          </mxGeometry>
        </mxCell>
        <mxCell id="IqF8qVAzn-dB3DnFm8-X-60" value="" style="group" parent="1" vertex="1" connectable="0">
          <mxGeometry x="700" y="200" width="460" height="250" as="geometry" />
        </mxCell>
        <mxCell id="IqF8qVAzn-dB3DnFm8-X-61" value="" style="rounded=0;whiteSpace=wrap;html=1;" parent="IqF8qVAzn-dB3DnFm8-X-60" vertex="1">
          <mxGeometry width="210" height="250" as="geometry" />
        </mxCell>
        <mxCell id="IqF8qVAzn-dB3DnFm8-X-63" value="Ground Beef with Homemade Taco Seasoning Mix" style="text;html=1;strokeColor=none;fillColor=none;align=center;verticalAlign=middle;whiteSpace=wrap;rounded=0;fontSize=16;" parent="IqF8qVAzn-dB3DnFm8-X-60" vertex="1">
          <mxGeometry x="10" y="160" width="190" height="80" as="geometry" />
        </mxCell>
        <mxCell id="IqF8qVAzn-dB3DnFm8-X-64" value="Mexican - Easy" style="text;html=1;strokeColor=none;fillColor=none;align=center;verticalAlign=middle;whiteSpace=wrap;rounded=0;" parent="IqF8qVAzn-dB3DnFm8-X-60" vertex="1">
          <mxGeometry y="120" width="150" height="20" as="geometry" />
        </mxCell>
        <mxCell id="IqF8qVAzn-dB3DnFm8-X-65" value="30mins" style="text;html=1;strokeColor=none;fillColor=none;align=center;verticalAlign=middle;whiteSpace=wrap;rounded=0;" parent="IqF8qVAzn-dB3DnFm8-X-60" vertex="1">
          <mxGeometry x="150" y="120" width="60" height="20" as="geometry" />
        </mxCell>
        <mxCell id="IqF8qVAzn-dB3DnFm8-X-143" value="" style="rounded=1;whiteSpace=wrap;html=1;strokeWidth=2;fillWeight=4;hachureGap=8;hachureAngle=45;fillColor=#1ba1e2;sketch=1;" parent="IqF8qVAzn-dB3DnFm8-X-60" vertex="1">
          <mxGeometry width="210" height="120" as="geometry" />
        </mxCell>
        <mxCell id="IqF8qVAzn-dB3DnFm8-X-144" value="..." style="ellipse;whiteSpace=wrap;html=1;aspect=fixed;spacingTop=0;verticalAlign=middle;align=center;spacingLeft=0;spacingBottom=12;fontSize=22;fillColor=#FF5555;" parent="IqF8qVAzn-dB3DnFm8-X-60" vertex="1">
          <mxGeometry x="186" y="4" width="20" height="20" as="geometry" />
        </mxCell>
        <mxCell id="IqF8qVAzn-dB3DnFm8-X-147" value="" style="rounded=1;whiteSpace=wrap;html=1;strokeWidth=2;fillWeight=4;hachureGap=8;hachureAngle=45;fillColor=#1ba1e2;sketch=1;" parent="IqF8qVAzn-dB3DnFm8-X-60" vertex="1">
          <mxGeometry x="250" width="210" height="120" as="geometry" />
        </mxCell>
        <mxCell id="IqF8qVAzn-dB3DnFm8-X-148" value="..." style="ellipse;whiteSpace=wrap;html=1;aspect=fixed;spacingTop=0;verticalAlign=middle;align=center;spacingLeft=0;spacingBottom=12;fontSize=22;" parent="IqF8qVAzn-dB3DnFm8-X-60" vertex="1">
          <mxGeometry x="436" y="4" width="20" height="20" as="geometry" />
        </mxCell>
        <mxCell id="IqF8qVAzn-dB3DnFm8-X-66" value="" style="group" parent="1" vertex="1" connectable="0">
          <mxGeometry x="950" y="200" width="210" height="250" as="geometry" />
        </mxCell>
        <mxCell id="IqF8qVAzn-dB3DnFm8-X-67" value="" style="rounded=0;whiteSpace=wrap;html=1;" parent="IqF8qVAzn-dB3DnFm8-X-66" vertex="1">
          <mxGeometry width="210" height="250" as="geometry" />
        </mxCell>
        <mxCell id="IqF8qVAzn-dB3DnFm8-X-69" value="Ground Beef with Homemade Taco Seasoning Mix" style="text;html=1;strokeColor=none;fillColor=none;align=center;verticalAlign=middle;whiteSpace=wrap;rounded=0;fontSize=16;" parent="IqF8qVAzn-dB3DnFm8-X-66" vertex="1">
          <mxGeometry x="10" y="160" width="190" height="80" as="geometry" />
        </mxCell>
        <mxCell id="IqF8qVAzn-dB3DnFm8-X-70" value="Mexican - Easy" style="text;html=1;strokeColor=none;fillColor=none;align=center;verticalAlign=middle;whiteSpace=wrap;rounded=0;" parent="IqF8qVAzn-dB3DnFm8-X-66" vertex="1">
          <mxGeometry y="120" width="150" height="20" as="geometry" />
        </mxCell>
        <mxCell id="IqF8qVAzn-dB3DnFm8-X-71" value="30mins" style="text;html=1;strokeColor=none;fillColor=none;align=center;verticalAlign=middle;whiteSpace=wrap;rounded=0;" parent="IqF8qVAzn-dB3DnFm8-X-66" vertex="1">
          <mxGeometry x="150" y="120" width="60" height="20" as="geometry" />
        </mxCell>
        <mxCell id="IqF8qVAzn-dB3DnFm8-X-145" value="" style="rounded=1;whiteSpace=wrap;html=1;strokeWidth=2;fillWeight=4;hachureGap=8;hachureAngle=45;fillColor=#1ba1e2;sketch=1;" parent="IqF8qVAzn-dB3DnFm8-X-66" vertex="1">
          <mxGeometry width="210" height="120" as="geometry" />
        </mxCell>
        <mxCell id="IqF8qVAzn-dB3DnFm8-X-146" value="..." style="ellipse;whiteSpace=wrap;html=1;aspect=fixed;spacingTop=0;verticalAlign=middle;align=center;spacingLeft=0;spacingBottom=12;fontSize=22;fillColor=#FF5555;" parent="IqF8qVAzn-dB3DnFm8-X-66" vertex="1">
          <mxGeometry x="186" y="4" width="20" height="20" as="geometry" />
        </mxCell>
        <mxCell id="IqF8qVAzn-dB3DnFm8-X-100" value="" style="group" parent="1" vertex="1" connectable="0">
          <mxGeometry x="450" y="200" width="750" height="650" as="geometry" />
        </mxCell>
        <mxCell id="IqF8qVAzn-dB3DnFm8-X-101" value="" style="rounded=0;whiteSpace=wrap;html=1;" parent="IqF8qVAzn-dB3DnFm8-X-100" vertex="1">
          <mxGeometry width="210" height="250" as="geometry" />
        </mxCell>
        <mxCell id="IqF8qVAzn-dB3DnFm8-X-102" value="" style="rounded=1;whiteSpace=wrap;html=1;strokeWidth=2;fillWeight=4;hachureGap=8;hachureAngle=45;fillColor=#1ba1e2;sketch=1;" parent="IqF8qVAzn-dB3DnFm8-X-100" vertex="1">
          <mxGeometry width="210" height="120" as="geometry" />
        </mxCell>
        <mxCell id="IqF8qVAzn-dB3DnFm8-X-103" value="Ground Beef with Homemade Taco Seasoning Mix" style="text;html=1;strokeColor=none;fillColor=none;align=center;verticalAlign=middle;whiteSpace=wrap;rounded=0;fontSize=16;" parent="IqF8qVAzn-dB3DnFm8-X-100" vertex="1">
          <mxGeometry x="10" y="160" width="190" height="80" as="geometry" />
        </mxCell>
        <mxCell id="IqF8qVAzn-dB3DnFm8-X-104" value="Mexican - Easy" style="text;html=1;strokeColor=none;fillColor=none;align=center;verticalAlign=middle;whiteSpace=wrap;rounded=0;" parent="IqF8qVAzn-dB3DnFm8-X-100" vertex="1">
          <mxGeometry y="120" width="150" height="20" as="geometry" />
        </mxCell>
        <mxCell id="IqF8qVAzn-dB3DnFm8-X-105" value="30mins" style="text;html=1;strokeColor=none;fillColor=none;align=center;verticalAlign=middle;whiteSpace=wrap;rounded=0;" parent="IqF8qVAzn-dB3DnFm8-X-100" vertex="1">
          <mxGeometry x="150" y="120" width="60" height="20" as="geometry" />
        </mxCell>
        <mxCell id="IqF8qVAzn-dB3DnFm8-X-55" value="..." style="ellipse;whiteSpace=wrap;html=1;aspect=fixed;spacingTop=0;verticalAlign=middle;align=center;spacingLeft=0;spacingBottom=12;fontSize=22;" parent="IqF8qVAzn-dB3DnFm8-X-100" vertex="1">
          <mxGeometry x="186" y="4" width="20" height="20" as="geometry" />
        </mxCell>
        <mxCell id="SdurLJeBYAYdMFXDzEq1-116" value="" style="group" parent="IqF8qVAzn-dB3DnFm8-X-100" vertex="1" connectable="0">
          <mxGeometry width="750" height="650" as="geometry" />
        </mxCell>
        <mxCell id="SdurLJeBYAYdMFXDzEq1-117" value="" style="rounded=0;whiteSpace=wrap;html=1;" parent="SdurLJeBYAYdMFXDzEq1-116" vertex="1">
          <mxGeometry width="210" height="250" as="geometry" />
        </mxCell>
        <mxCell id="SdurLJeBYAYdMFXDzEq1-118" value="" style="rounded=1;whiteSpace=wrap;html=1;strokeWidth=2;fillWeight=4;hachureGap=8;hachureAngle=45;fillColor=#1ba1e2;sketch=1;" parent="SdurLJeBYAYdMFXDzEq1-116" vertex="1">
          <mxGeometry width="210" height="120" as="geometry" />
        </mxCell>
        <mxCell id="SdurLJeBYAYdMFXDzEq1-119" value="Ground Beef with Homemade Taco Seasoning Mix" style="text;html=1;strokeColor=none;fillColor=none;align=center;verticalAlign=middle;whiteSpace=wrap;rounded=0;fontSize=16;" parent="SdurLJeBYAYdMFXDzEq1-116" vertex="1">
          <mxGeometry x="10" y="160" width="190" height="80" as="geometry" />
        </mxCell>
        <mxCell id="SdurLJeBYAYdMFXDzEq1-120" value="Mexican - Easy" style="text;html=1;strokeColor=none;fillColor=none;align=center;verticalAlign=middle;whiteSpace=wrap;rounded=0;" parent="SdurLJeBYAYdMFXDzEq1-116" vertex="1">
          <mxGeometry y="120" width="150" height="20" as="geometry" />
        </mxCell>
        <mxCell id="SdurLJeBYAYdMFXDzEq1-121" value="30mins" style="text;html=1;strokeColor=none;fillColor=none;align=center;verticalAlign=middle;whiteSpace=wrap;rounded=0;" parent="SdurLJeBYAYdMFXDzEq1-116" vertex="1">
          <mxGeometry x="150" y="120" width="60" height="20" as="geometry" />
        </mxCell>
        <mxCell id="SdurLJeBYAYdMFXDzEq1-122" value="..." style="ellipse;whiteSpace=wrap;html=1;aspect=fixed;spacingTop=0;verticalAlign=middle;align=center;spacingLeft=0;spacingBottom=12;fontSize=22;fillColor=#FF5555;" parent="SdurLJeBYAYdMFXDzEq1-116" vertex="1">
          <mxGeometry x="186" y="4" width="20" height="20" as="geometry" />
        </mxCell>
        <mxCell id="IqF8qVAzn-dB3DnFm8-X-112" value="" style="group" parent="1" vertex="1" connectable="0">
          <mxGeometry x="200" y="490" width="460" height="250" as="geometry" />
        </mxCell>
        <mxCell id="IqF8qVAzn-dB3DnFm8-X-113" value="" style="rounded=0;whiteSpace=wrap;html=1;" parent="IqF8qVAzn-dB3DnFm8-X-112" vertex="1">
          <mxGeometry width="210" height="250" as="geometry" />
        </mxCell>
        <mxCell id="IqF8qVAzn-dB3DnFm8-X-115" value="Ground Beef with Homemade Taco Seasoning Mix" style="text;html=1;strokeColor=none;fillColor=none;align=center;verticalAlign=middle;whiteSpace=wrap;rounded=0;fontSize=16;" parent="IqF8qVAzn-dB3DnFm8-X-112" vertex="1">
          <mxGeometry x="10" y="160" width="190" height="80" as="geometry" />
        </mxCell>
        <mxCell id="IqF8qVAzn-dB3DnFm8-X-116" value="Mexican - Easy" style="text;html=1;strokeColor=none;fillColor=none;align=center;verticalAlign=middle;whiteSpace=wrap;rounded=0;" parent="IqF8qVAzn-dB3DnFm8-X-112" vertex="1">
          <mxGeometry y="120" width="150" height="20" as="geometry" />
        </mxCell>
        <mxCell id="IqF8qVAzn-dB3DnFm8-X-117" value="30mins" style="text;html=1;strokeColor=none;fillColor=none;align=center;verticalAlign=middle;whiteSpace=wrap;rounded=0;" parent="IqF8qVAzn-dB3DnFm8-X-112" vertex="1">
          <mxGeometry x="150" y="120" width="60" height="20" as="geometry" />
        </mxCell>
        <mxCell id="IqF8qVAzn-dB3DnFm8-X-149" value="" style="rounded=1;whiteSpace=wrap;html=1;strokeWidth=2;fillWeight=4;hachureGap=8;hachureAngle=45;fillColor=#1ba1e2;sketch=1;" parent="IqF8qVAzn-dB3DnFm8-X-112" vertex="1">
          <mxGeometry width="210" height="120" as="geometry" />
        </mxCell>
        <mxCell id="IqF8qVAzn-dB3DnFm8-X-150" value="..." style="ellipse;whiteSpace=wrap;html=1;aspect=fixed;spacingTop=0;verticalAlign=middle;align=center;spacingLeft=0;spacingBottom=12;fontSize=22;fillColor=#FF3333;" parent="IqF8qVAzn-dB3DnFm8-X-112" vertex="1">
          <mxGeometry x="186" y="4" width="20" height="20" as="geometry" />
        </mxCell>
        <mxCell id="IqF8qVAzn-dB3DnFm8-X-151" value="" style="rounded=1;whiteSpace=wrap;html=1;strokeWidth=2;fillWeight=4;hachureGap=8;hachureAngle=45;fillColor=#1ba1e2;sketch=1;" parent="IqF8qVAzn-dB3DnFm8-X-112" vertex="1">
          <mxGeometry x="250" width="210" height="120" as="geometry" />
        </mxCell>
        <mxCell id="IqF8qVAzn-dB3DnFm8-X-152" value="..." style="ellipse;whiteSpace=wrap;html=1;aspect=fixed;spacingTop=0;verticalAlign=middle;align=center;spacingLeft=0;spacingBottom=12;fontSize=22;fillColor=#FF3333;" parent="IqF8qVAzn-dB3DnFm8-X-112" vertex="1">
          <mxGeometry x="436" y="4" width="20" height="20" as="geometry" />
        </mxCell>
        <mxCell id="IqF8qVAzn-dB3DnFm8-X-124" value="" style="group" parent="1" vertex="1" connectable="0">
          <mxGeometry x="700" y="490" width="460" height="250" as="geometry" />
        </mxCell>
        <mxCell id="IqF8qVAzn-dB3DnFm8-X-125" value="" style="rounded=0;whiteSpace=wrap;html=1;" parent="IqF8qVAzn-dB3DnFm8-X-124" vertex="1">
          <mxGeometry width="210" height="250" as="geometry" />
        </mxCell>
        <mxCell id="IqF8qVAzn-dB3DnFm8-X-127" value="Ground Beef with Homemade Taco Seasoning Mix" style="text;html=1;strokeColor=none;fillColor=none;align=center;verticalAlign=middle;whiteSpace=wrap;rounded=0;fontSize=16;" parent="IqF8qVAzn-dB3DnFm8-X-124" vertex="1">
          <mxGeometry x="10" y="160" width="190" height="80" as="geometry" />
        </mxCell>
        <mxCell id="IqF8qVAzn-dB3DnFm8-X-128" value="Mexican - Easy" style="text;html=1;strokeColor=none;fillColor=none;align=center;verticalAlign=middle;whiteSpace=wrap;rounded=0;" parent="IqF8qVAzn-dB3DnFm8-X-124" vertex="1">
          <mxGeometry y="120" width="150" height="20" as="geometry" />
        </mxCell>
        <mxCell id="IqF8qVAzn-dB3DnFm8-X-129" value="30mins" style="text;html=1;strokeColor=none;fillColor=none;align=center;verticalAlign=middle;whiteSpace=wrap;rounded=0;" parent="IqF8qVAzn-dB3DnFm8-X-124" vertex="1">
          <mxGeometry x="150" y="120" width="60" height="20" as="geometry" />
        </mxCell>
        <mxCell id="IqF8qVAzn-dB3DnFm8-X-153" value="" style="rounded=1;whiteSpace=wrap;html=1;strokeWidth=2;fillWeight=4;hachureGap=8;hachureAngle=45;fillColor=#1ba1e2;sketch=1;" parent="IqF8qVAzn-dB3DnFm8-X-124" vertex="1">
          <mxGeometry width="210" height="120" as="geometry" />
        </mxCell>
        <mxCell id="IqF8qVAzn-dB3DnFm8-X-154" value="..." style="ellipse;whiteSpace=wrap;html=1;aspect=fixed;spacingTop=0;verticalAlign=middle;align=center;spacingLeft=0;spacingBottom=12;fontSize=22;fillColor=#FF3333;" parent="IqF8qVAzn-dB3DnFm8-X-124" vertex="1">
          <mxGeometry x="186" y="4" width="20" height="20" as="geometry" />
        </mxCell>
        <mxCell id="IqF8qVAzn-dB3DnFm8-X-155" value="" style="rounded=1;whiteSpace=wrap;html=1;strokeWidth=2;fillWeight=4;hachureGap=8;hachureAngle=45;fillColor=#1ba1e2;sketch=1;" parent="IqF8qVAzn-dB3DnFm8-X-124" vertex="1">
          <mxGeometry x="250" width="210" height="120" as="geometry" />
        </mxCell>
        <mxCell id="IqF8qVAzn-dB3DnFm8-X-156" value="..." style="ellipse;whiteSpace=wrap;html=1;aspect=fixed;spacingTop=0;verticalAlign=middle;align=center;spacingLeft=0;spacingBottom=12;fontSize=22;fillColor=#FF3333;" parent="IqF8qVAzn-dB3DnFm8-X-124" vertex="1">
          <mxGeometry x="436" y="4" width="20" height="20" as="geometry" />
        </mxCell>
        <mxCell id="IqF8qVAzn-dB3DnFm8-X-159" value="All Recipes" style="text;html=1;strokeColor=none;fillColor=none;align=center;verticalAlign=middle;whiteSpace=wrap;rounded=0;fontColor=#4a4a4a;" parent="1" vertex="1">
          <mxGeometry x="640" y="140" width="80" height="30" as="geometry" />
        </mxCell>
        <mxCell id="IqF8qVAzn-dB3DnFm8-X-160" value="All Recipes" style="text;html=1;strokeColor=#666666;fillColor=#FFAAAA;align=center;verticalAlign=middle;whiteSpace=wrap;rounded=0;fontSize=10;fontColor=#333333;" parent="1" vertex="1">
          <mxGeometry x="40" y="200" width="90" height="30" as="geometry" />
        </mxCell>
        <mxCell id="IqF8qVAzn-dB3DnFm8-X-161" value="Vegan" style="text;html=1;strokeColor=none;fillColor=none;align=center;verticalAlign=middle;whiteSpace=wrap;rounded=0;fontSize=10;fontColor=#E6E6E6;" parent="1" vertex="1">
          <mxGeometry x="40" y="230" width="90" height="30" as="geometry" />
        </mxCell>
        <mxCell id="IqF8qVAzn-dB3DnFm8-X-162" value="Mexican" style="text;html=1;strokeColor=none;fillColor=none;align=center;verticalAlign=middle;whiteSpace=wrap;rounded=0;fontSize=10;fontColor=#E6E6E6;" parent="1" vertex="1">
          <mxGeometry x="40" y="260" width="90" height="30" as="geometry" />
        </mxCell>
        <mxCell id="IqF8qVAzn-dB3DnFm8-X-163" value="Breakfast" style="text;html=1;strokeColor=none;fillColor=none;align=center;verticalAlign=middle;whiteSpace=wrap;rounded=0;fontSize=10;fontColor=#E6E6E6;" parent="1" vertex="1">
          <mxGeometry x="40" y="290" width="90" height="30" as="geometry" />
        </mxCell>
        <mxCell id="IqF8qVAzn-dB3DnFm8-X-164" value="New Folder" style="text;html=1;strokeColor=none;fillColor=none;align=center;verticalAlign=middle;whiteSpace=wrap;rounded=0;fontSize=10;fontColor=#E6E6E6;" parent="1" vertex="1">
          <mxGeometry x="40" y="320" width="90" height="30" as="geometry" />
        </mxCell>
        <mxCell id="IqF8qVAzn-dB3DnFm8-X-165" value="Recipe" style="text;html=1;strokeColor=none;fillColor=none;align=center;verticalAlign=middle;whiteSpace=wrap;rounded=0;fontColor=#FFFFFF;" parent="1" vertex="1">
          <mxGeometry x="20" y="360" width="60" height="30" as="geometry" />
        </mxCell>
        <mxCell id="IqF8qVAzn-dB3DnFm8-X-166" value="" style="rounded=0;whiteSpace=wrap;html=1;fillColor=#FF5555;" parent="1" vertex="1">
          <mxGeometry x="1520" y="80" width="1040" height="770" as="geometry" />
        </mxCell>
        <mxCell id="IqF8qVAzn-dB3DnFm8-X-167" value="" style="rounded=0;whiteSpace=wrap;html=1;" parent="1" vertex="1">
          <mxGeometry x="1520" y="160" width="1040" height="690" as="geometry" />
        </mxCell>
        <mxCell id="IqF8qVAzn-dB3DnFm8-X-178" value="" style="rounded=0;whiteSpace=wrap;html=1;fillColor=#DD1111;" parent="1" vertex="1">
          <mxGeometry x="1360" y="80" width="160" height="770" as="geometry" />
        </mxCell>
        <mxCell id="IqF8qVAzn-dB3DnFm8-X-179" value="Cookbook" style="text;html=1;align=center;verticalAlign=middle;whiteSpace=wrap;rounded=0;fontColor=#FFFFFF;" parent="1" vertex="1">
          <mxGeometry x="1380" y="160" width="60" height="30" as="geometry" />
        </mxCell>
        <mxCell id="IqF8qVAzn-dB3DnFm8-X-180" value="Ground Beef with Homemade Taco Seasoning Mix" style="text;html=1;strokeColor=none;fillColor=none;align=center;verticalAlign=middle;whiteSpace=wrap;rounded=0;fontSize=24;" parent="1" vertex="1">
          <mxGeometry x="1520" y="110" width="1040" height="30" as="geometry" />
        </mxCell>
        <mxCell id="IqF8qVAzn-dB3DnFm8-X-181" value="" style="shape=image;html=1;verticalLabelPosition=bottom;verticalAlign=top;imageAspect=1;aspect=fixed;image=img/clipart/Gear_128x128.png" parent="1" vertex="1">
          <mxGeometry x="2530" y="90" width="22" height="25.81" as="geometry" />
        </mxCell>
        <mxCell id="IqF8qVAzn-dB3DnFm8-X-186" value="" style="group;fontColor=#FFFFFF;" parent="1" vertex="1" connectable="0">
          <mxGeometry x="1380" y="110" width="64.82842712474618" height="30" as="geometry" />
        </mxCell>
        <mxCell id="IqF8qVAzn-dB3DnFm8-X-187" value="______" style="text;html=1;strokeColor=none;fillColor=none;align=center;verticalAlign=middle;whiteSpace=wrap;rounded=0;fontColor=#FFFFFF;" parent="IqF8qVAzn-dB3DnFm8-X-186" vertex="1">
          <mxGeometry width="60" height="30" as="geometry" />
        </mxCell>
        <mxCell id="IqF8qVAzn-dB3DnFm8-X-188" value="" style="ellipse;shape=doubleEllipse;whiteSpace=wrap;html=1;aspect=fixed;movable=1;resizable=1;rotatable=1;deletable=1;editable=1;locked=0;connectable=1;" parent="IqF8qVAzn-dB3DnFm8-X-186" vertex="1">
          <mxGeometry x="54" y="8" width="8" height="8" as="geometry" />
        </mxCell>
        <mxCell id="IqF8qVAzn-dB3DnFm8-X-189" value="" style="rounded=0;whiteSpace=wrap;html=1;rotation=45;" parent="IqF8qVAzn-dB3DnFm8-X-186" vertex="1">
          <mxGeometry x="59" y="15" width="6" height="2" as="geometry" />
        </mxCell>
        <mxCell id="IqF8qVAzn-dB3DnFm8-X-248" value="Recipe" style="text;html=1;strokeColor=#666666;fillColor=#FFAAAA;align=center;verticalAlign=middle;whiteSpace=wrap;rounded=0;fontColor=#333333;" parent="1" vertex="1">
          <mxGeometry x="1380" y="210" width="60" height="30" as="geometry" />
        </mxCell>
        <mxCell id="IqF8qVAzn-dB3DnFm8-X-250" value="" style="rounded=0;whiteSpace=wrap;html=1;strokeWidth=1;" parent="1" vertex="1">
          <mxGeometry x="1520" y="160" width="280" height="690" as="geometry" />
        </mxCell>
        <mxCell id="IqF8qVAzn-dB3DnFm8-X-251" value="Ingredients" style="text;html=1;strokeColor=#b85450;fillColor=#FFAAAA;align=center;verticalAlign=middle;whiteSpace=wrap;rounded=0;fontSize=22;" parent="1" vertex="1">
          <mxGeometry x="1520" y="160" width="280" height="50" as="geometry" />
        </mxCell>
        <mxCell id="IqF8qVAzn-dB3DnFm8-X-254" value="&lt;ul style=&quot;font-size: 16px;&quot;&gt;&lt;li style=&quot;font-size: 16px;&quot;&gt;1lb of ground beef&lt;/li&gt;&lt;li style=&quot;font-size: 16px;&quot;&gt;1 tsb of paprika&lt;/li&gt;&lt;li style=&quot;font-size: 16px;&quot;&gt;1 tsb of salt&lt;/li&gt;&lt;li style=&quot;font-size: 16px;&quot;&gt;2 red bell peppers sliced&lt;/li&gt;&lt;/ul&gt;" style="text;strokeColor=none;fillColor=none;align=left;verticalAlign=middle;spacingLeft=4;spacingRight=4;overflow=hidden;points=[[0,0.5],[1,0.5]];portConstraint=eastwest;rotatable=0;whiteSpace=wrap;html=1;fontSize=16;" parent="1" vertex="1">
          <mxGeometry x="1540" y="224" width="240" height="96" as="geometry" />
        </mxCell>
        <mxCell id="IqF8qVAzn-dB3DnFm8-X-255" value="Directions" style="text;html=1;strokeColor=none;fillColor=default;align=center;verticalAlign=middle;whiteSpace=wrap;rounded=0;fontSize=18;" parent="1" vertex="1">
          <mxGeometry x="1800" y="162" width="520" height="48" as="geometry" />
        </mxCell>
        <mxCell id="SdurLJeBYAYdMFXDzEq1-5" value="" style="group" parent="1" vertex="1" connectable="0">
          <mxGeometry x="1880" y="230" width="190" height="30" as="geometry" />
        </mxCell>
        <mxCell id="SdurLJeBYAYdMFXDzEq1-2" value="Preheat the oven to 200C" style="text;html=1;strokeColor=none;fillColor=none;align=center;verticalAlign=middle;whiteSpace=wrap;rounded=0;" parent="SdurLJeBYAYdMFXDzEq1-5" vertex="1">
          <mxGeometry x="10" width="160" height="30" as="geometry" />
        </mxCell>
        <mxCell id="SdurLJeBYAYdMFXDzEq1-3" value="" style="rounded=0;whiteSpace=wrap;html=1;" parent="SdurLJeBYAYdMFXDzEq1-5" vertex="1">
          <mxGeometry y="11.5" width="7" height="7" as="geometry" />
        </mxCell>
        <mxCell id="SdurLJeBYAYdMFXDzEq1-6" value="" style="group" parent="1" vertex="1" connectable="0">
          <mxGeometry x="1880" y="260" width="230" height="30" as="geometry" />
        </mxCell>
        <mxCell id="SdurLJeBYAYdMFXDzEq1-7" value="Cook peppers in oven for 12 mins" style="text;html=1;strokeColor=none;fillColor=none;align=center;verticalAlign=middle;whiteSpace=wrap;rounded=0;" parent="SdurLJeBYAYdMFXDzEq1-6" vertex="1">
          <mxGeometry x="10" width="200" height="30" as="geometry" />
        </mxCell>
        <mxCell id="SdurLJeBYAYdMFXDzEq1-8" value="" style="rounded=0;whiteSpace=wrap;html=1;" parent="SdurLJeBYAYdMFXDzEq1-6" vertex="1">
          <mxGeometry y="11.5" width="7" height="7" as="geometry" />
        </mxCell>
        <mxCell id="SdurLJeBYAYdMFXDzEq1-9" value="" style="group" parent="1" vertex="1" connectable="0">
          <mxGeometry x="1880" y="290" width="140" height="30" as="geometry" />
        </mxCell>
        <mxCell id="SdurLJeBYAYdMFXDzEq1-10" value="Cook ground beef" style="text;html=1;strokeColor=none;fillColor=none;align=center;verticalAlign=middle;whiteSpace=wrap;rounded=0;" parent="SdurLJeBYAYdMFXDzEq1-9" vertex="1">
          <mxGeometry x="10" width="115" height="30" as="geometry" />
        </mxCell>
        <mxCell id="SdurLJeBYAYdMFXDzEq1-11" value="" style="rounded=0;whiteSpace=wrap;html=1;" parent="SdurLJeBYAYdMFXDzEq1-9" vertex="1">
          <mxGeometry y="11.5" width="7" height="7" as="geometry" />
        </mxCell>
        <mxCell id="SdurLJeBYAYdMFXDzEq1-12" value="" style="group" parent="1" vertex="1" connectable="0">
          <mxGeometry x="1880" y="320" width="160" height="30" as="geometry" />
        </mxCell>
        <mxCell id="SdurLJeBYAYdMFXDzEq1-13" value="Mix everything together" style="text;html=1;strokeColor=none;fillColor=none;align=center;verticalAlign=middle;whiteSpace=wrap;rounded=0;" parent="SdurLJeBYAYdMFXDzEq1-12" vertex="1">
          <mxGeometry x="11.43" width="141" height="30" as="geometry" />
        </mxCell>
        <mxCell id="SdurLJeBYAYdMFXDzEq1-14" value="" style="rounded=0;whiteSpace=wrap;html=1;" parent="SdurLJeBYAYdMFXDzEq1-12" vertex="1">
          <mxGeometry y="11.5" width="8" height="7" as="geometry" />
        </mxCell>
        <mxCell id="SdurLJeBYAYdMFXDzEq1-30" value="" style="rounded=0;whiteSpace=wrap;html=1;" parent="1" vertex="1">
          <mxGeometry x="2320" y="160" width="240" height="690" as="geometry" />
        </mxCell>
        <mxCell id="SdurLJeBYAYdMFXDzEq1-34" value="" style="rounded=0;whiteSpace=wrap;html=1;" parent="1" vertex="1">
          <mxGeometry x="2330" y="170" width="220" height="130" as="geometry" />
        </mxCell>
        <mxCell id="SdurLJeBYAYdMFXDzEq1-35" value="Pepper Timer" style="text;html=1;align=center;verticalAlign=middle;whiteSpace=wrap;rounded=0;fontSize=20;fillColor=#f9b848;" parent="1" vertex="1">
          <mxGeometry x="2330" y="170" width="220" height="30" as="geometry" />
        </mxCell>
        <mxCell id="SdurLJeBYAYdMFXDzEq1-36" value="9:15" style="text;html=1;strokeColor=#d6b656;fillColor=#fff2cc;align=center;verticalAlign=middle;whiteSpace=wrap;rounded=0;fontSize=22;" parent="1" vertex="1">
          <mxGeometry x="2350" y="230" width="180" height="30" as="geometry" />
        </mxCell>
        <mxCell id="SdurLJeBYAYdMFXDzEq1-37" value="15:00" style="text;html=1;strokeColor=none;fillColor=none;align=center;verticalAlign=middle;whiteSpace=wrap;rounded=0;fontSize=11;" parent="1" vertex="1">
          <mxGeometry x="2410" y="200" width="60" height="30" as="geometry" />
        </mxCell>
        <mxCell id="SdurLJeBYAYdMFXDzEq1-38" value="5:30 PM" style="text;html=1;strokeColor=none;fillColor=none;align=center;verticalAlign=middle;whiteSpace=wrap;rounded=0;fontSize=11;" parent="1" vertex="1">
          <mxGeometry x="2410" y="260" width="60" height="30" as="geometry" />
        </mxCell>
        <mxCell id="SdurLJeBYAYdMFXDzEq1-39" value="" style="rounded=0;whiteSpace=wrap;html=1;fillColor=#FF5555;" parent="1" vertex="1">
          <mxGeometry x="2880" y="80" width="1040" height="770" as="geometry" />
        </mxCell>
        <mxCell id="SdurLJeBYAYdMFXDzEq1-40" value="" style="rounded=0;whiteSpace=wrap;html=1;" parent="1" vertex="1">
          <mxGeometry x="2880" y="180" width="1040" height="670" as="geometry" />
        </mxCell>
        <mxCell id="SdurLJeBYAYdMFXDzEq1-41" value="" style="rounded=0;whiteSpace=wrap;html=1;fillColor=#DD1111;" parent="1" vertex="1">
          <mxGeometry x="2720" y="80" width="160" height="770" as="geometry" />
        </mxCell>
        <mxCell id="SdurLJeBYAYdMFXDzEq1-42" value="Cookbook" style="text;html=1;align=center;verticalAlign=middle;whiteSpace=wrap;rounded=0;fontColor=#FFFFFF;" parent="1" vertex="1">
          <mxGeometry x="2740" y="171" width="60" height="30" as="geometry" />
        </mxCell>
        <mxCell id="SdurLJeBYAYdMFXDzEq1-44" value="" style="shape=image;html=1;verticalLabelPosition=bottom;verticalAlign=top;imageAspect=1;aspect=fixed;image=img/clipart/Gear_128x128.png" parent="1" vertex="1">
          <mxGeometry x="3890" y="90" width="22" height="25.81" as="geometry" />
        </mxCell>
        <mxCell id="SdurLJeBYAYdMFXDzEq1-45" value="" style="group;fillColor=#FFAAAA;fontColor=#333333;strokeColor=#666666;" parent="1" vertex="1" connectable="0">
          <mxGeometry x="2740" y="120" width="64.82842712474618" height="30" as="geometry" />
        </mxCell>
        <mxCell id="SdurLJeBYAYdMFXDzEq1-46" value="______" style="text;html=1;strokeColor=none;fillColor=none;align=center;verticalAlign=middle;whiteSpace=wrap;rounded=0;" parent="SdurLJeBYAYdMFXDzEq1-45" vertex="1">
          <mxGeometry width="60" height="30" as="geometry" />
        </mxCell>
        <mxCell id="SdurLJeBYAYdMFXDzEq1-47" value="" style="ellipse;shape=doubleEllipse;whiteSpace=wrap;html=1;aspect=fixed;movable=1;resizable=1;rotatable=1;deletable=1;editable=1;locked=0;connectable=1;" parent="SdurLJeBYAYdMFXDzEq1-45" vertex="1">
          <mxGeometry x="54" y="8" width="8" height="8" as="geometry" />
        </mxCell>
        <mxCell id="SdurLJeBYAYdMFXDzEq1-48" value="" style="rounded=0;whiteSpace=wrap;html=1;rotation=45;" parent="SdurLJeBYAYdMFXDzEq1-45" vertex="1">
          <mxGeometry x="59" y="15" width="6" height="2" as="geometry" />
        </mxCell>
        <mxCell id="SdurLJeBYAYdMFXDzEq1-49" value="Recipe" style="text;html=1;align=center;verticalAlign=middle;whiteSpace=wrap;rounded=0;fontColor=#FFFFFF;" parent="1" vertex="1">
          <mxGeometry x="2740" y="210" width="60" height="30" as="geometry" />
        </mxCell>
        <mxCell id="SdurLJeBYAYdMFXDzEq1-80" value="" style="rounded=0;whiteSpace=wrap;html=1;" parent="1" vertex="1">
          <mxGeometry x="2880" y="180" width="250" height="670" as="geometry" />
        </mxCell>
        <mxCell id="SdurLJeBYAYdMFXDzEq1-81" value="Tags" style="text;html=1;strokeColor=none;fillColor=#FFAAAA;align=center;verticalAlign=middle;whiteSpace=wrap;rounded=0;fontSize=20;" parent="1" vertex="1">
          <mxGeometry x="2880" y="180" width="250" height="40" as="geometry" />
        </mxCell>
        <mxCell id="SdurLJeBYAYdMFXDzEq1-82" value="Dietary Restrictions" style="text;html=1;strokeColor=none;fillColor=none;align=center;verticalAlign=middle;whiteSpace=wrap;rounded=0;fontSize=15;" parent="1" vertex="1">
          <mxGeometry x="2880" y="230" width="170" height="30" as="geometry" />
        </mxCell>
        <mxCell id="SdurLJeBYAYdMFXDzEq1-85" value="Meal type" style="text;html=1;strokeColor=none;fillColor=none;align=center;verticalAlign=middle;whiteSpace=wrap;rounded=0;fontSize=15;" parent="1" vertex="1">
          <mxGeometry x="2880" y="370" width="110" height="30" as="geometry" />
        </mxCell>
        <mxCell id="SdurLJeBYAYdMFXDzEq1-86" value="Prept Time" style="text;html=1;strokeColor=none;fillColor=none;align=center;verticalAlign=middle;whiteSpace=wrap;rounded=0;fontSize=15;" parent="1" vertex="1">
          <mxGeometry x="2880" y="530" width="120" height="30" as="geometry" />
        </mxCell>
        <mxCell id="SdurLJeBYAYdMFXDzEq1-92" value="" style="group" parent="1" vertex="1" connectable="0">
          <mxGeometry x="2930" y="395" width="160" height="30" as="geometry" />
        </mxCell>
        <mxCell id="SdurLJeBYAYdMFXDzEq1-93" value="Breakfast" style="text;html=1;strokeColor=none;fillColor=none;align=center;verticalAlign=middle;whiteSpace=wrap;rounded=0;" parent="SdurLJeBYAYdMFXDzEq1-92" vertex="1">
          <mxGeometry x="11.43" width="141" height="30" as="geometry" />
        </mxCell>
        <mxCell id="SdurLJeBYAYdMFXDzEq1-94" value="" style="rounded=0;whiteSpace=wrap;html=1;" parent="SdurLJeBYAYdMFXDzEq1-92" vertex="1">
          <mxGeometry y="11.5" width="8" height="7" as="geometry" />
        </mxCell>
        <mxCell id="SdurLJeBYAYdMFXDzEq1-95" value="" style="group" parent="1" vertex="1" connectable="0">
          <mxGeometry x="2930" y="425" width="160" height="30" as="geometry" />
        </mxCell>
        <mxCell id="SdurLJeBYAYdMFXDzEq1-96" value="Lunch" style="text;html=1;strokeColor=none;fillColor=none;align=center;verticalAlign=middle;whiteSpace=wrap;rounded=0;" parent="SdurLJeBYAYdMFXDzEq1-95" vertex="1">
          <mxGeometry x="11.43" width="141" height="30" as="geometry" />
        </mxCell>
        <mxCell id="SdurLJeBYAYdMFXDzEq1-97" value="" style="rounded=0;whiteSpace=wrap;html=1;" parent="SdurLJeBYAYdMFXDzEq1-95" vertex="1">
          <mxGeometry y="11.5" width="8" height="7" as="geometry" />
        </mxCell>
        <mxCell id="SdurLJeBYAYdMFXDzEq1-99" value="" style="group" parent="1" vertex="1" connectable="0">
          <mxGeometry x="2930" y="460" width="160" height="30" as="geometry" />
        </mxCell>
        <mxCell id="SdurLJeBYAYdMFXDzEq1-100" value="Dessert" style="text;html=1;strokeColor=none;fillColor=none;align=center;verticalAlign=middle;whiteSpace=wrap;rounded=0;" parent="SdurLJeBYAYdMFXDzEq1-99" vertex="1">
          <mxGeometry x="11.43" width="141" height="30" as="geometry" />
        </mxCell>
        <mxCell id="SdurLJeBYAYdMFXDzEq1-101" value="" style="rounded=0;whiteSpace=wrap;html=1;" parent="SdurLJeBYAYdMFXDzEq1-99" vertex="1">
          <mxGeometry y="11.5" width="8" height="7" as="geometry" />
        </mxCell>
        <mxCell id="SdurLJeBYAYdMFXDzEq1-102" value="" style="group" parent="1" vertex="1" connectable="0">
          <mxGeometry x="2930" y="260" width="160" height="30" as="geometry" />
        </mxCell>
        <mxCell id="SdurLJeBYAYdMFXDzEq1-103" value="Vegan" style="text;html=1;strokeColor=none;fillColor=none;align=center;verticalAlign=middle;whiteSpace=wrap;rounded=0;" parent="SdurLJeBYAYdMFXDzEq1-102" vertex="1">
          <mxGeometry x="11.43" width="141" height="30" as="geometry" />
        </mxCell>
        <mxCell id="SdurLJeBYAYdMFXDzEq1-104" value="" style="rounded=0;whiteSpace=wrap;html=1;" parent="SdurLJeBYAYdMFXDzEq1-102" vertex="1">
          <mxGeometry y="11.5" width="8" height="7" as="geometry" />
        </mxCell>
        <mxCell id="SdurLJeBYAYdMFXDzEq1-105" value="" style="group" parent="1" vertex="1" connectable="0">
          <mxGeometry x="2930" y="300" width="160" height="30" as="geometry" />
        </mxCell>
        <mxCell id="SdurLJeBYAYdMFXDzEq1-106" value="Gluten Free" style="text;html=1;strokeColor=none;fillColor=none;align=center;verticalAlign=middle;whiteSpace=wrap;rounded=0;" parent="SdurLJeBYAYdMFXDzEq1-105" vertex="1">
          <mxGeometry x="11.43" width="141" height="30" as="geometry" />
        </mxCell>
        <mxCell id="SdurLJeBYAYdMFXDzEq1-107" value="" style="rounded=0;whiteSpace=wrap;html=1;" parent="SdurLJeBYAYdMFXDzEq1-105" vertex="1">
          <mxGeometry y="11.5" width="8" height="7" as="geometry" />
        </mxCell>
        <mxCell id="SdurLJeBYAYdMFXDzEq1-108" value="&amp;nbsp;15 mins" style="rounded=0;whiteSpace=wrap;html=1;align=left;fontSize=10;fillColor=#FFAAAA;" parent="1" vertex="1">
          <mxGeometry x="2900" y="570" width="60" height="20" as="geometry" />
        </mxCell>
        <mxCell id="SdurLJeBYAYdMFXDzEq1-110" value="&amp;nbsp;30 mins" style="rounded=0;whiteSpace=wrap;html=1;fontSize=10;align=left;fillColor=#FFAAAA;" parent="1" vertex="1">
          <mxGeometry x="3000" y="570" width="60" height="20" as="geometry" />
        </mxCell>
        <mxCell id="SdurLJeBYAYdMFXDzEq1-111" value="" style="triangle;whiteSpace=wrap;html=1;rotation=90;" parent="1" vertex="1">
          <mxGeometry x="2953" y="582" width="5" height="5" as="geometry" />
        </mxCell>
        <mxCell id="SdurLJeBYAYdMFXDzEq1-112" value="" style="triangle;whiteSpace=wrap;html=1;rotation=-90;" parent="1" vertex="1">
          <mxGeometry x="2953" y="573" width="5" height="5" as="geometry" />
        </mxCell>
        <mxCell id="SdurLJeBYAYdMFXDzEq1-113" value="" style="triangle;whiteSpace=wrap;html=1;rotation=90;" parent="1" vertex="1">
          <mxGeometry x="3053" y="582" width="5" height="5" as="geometry" />
        </mxCell>
        <mxCell id="SdurLJeBYAYdMFXDzEq1-114" value="" style="triangle;whiteSpace=wrap;html=1;rotation=-90;" parent="1" vertex="1">
          <mxGeometry x="3053" y="573" width="5" height="5" as="geometry" />
        </mxCell>
        <mxCell id="SdurLJeBYAYdMFXDzEq1-115" value="to" style="text;html=1;strokeColor=none;fillColor=none;align=center;verticalAlign=middle;whiteSpace=wrap;rounded=0;" parent="1" vertex="1">
          <mxGeometry x="2950" y="565" width="60" height="30" as="geometry" />
        </mxCell>
        <mxCell id="SdurLJeBYAYdMFXDzEq1-134" value="" style="group" parent="1" vertex="1" connectable="0">
          <mxGeometry x="3170" y="200" width="210" height="250" as="geometry" />
        </mxCell>
        <mxCell id="SdurLJeBYAYdMFXDzEq1-128" value="" style="rounded=0;whiteSpace=wrap;html=1;" parent="SdurLJeBYAYdMFXDzEq1-134" vertex="1">
          <mxGeometry width="210" height="250" as="geometry" />
        </mxCell>
        <mxCell id="SdurLJeBYAYdMFXDzEq1-129" value="" style="rounded=1;whiteSpace=wrap;html=1;strokeWidth=2;fillWeight=4;hachureGap=8;hachureAngle=45;fillColor=#1ba1e2;sketch=1;" parent="SdurLJeBYAYdMFXDzEq1-134" vertex="1">
          <mxGeometry width="210" height="120" as="geometry" />
        </mxCell>
        <mxCell id="SdurLJeBYAYdMFXDzEq1-130" value="Ground Beef with Homemade Taco Seasoning Mix" style="text;html=1;strokeColor=none;fillColor=none;align=center;verticalAlign=middle;whiteSpace=wrap;rounded=0;fontSize=16;" parent="SdurLJeBYAYdMFXDzEq1-134" vertex="1">
          <mxGeometry x="10" y="160" width="190" height="80" as="geometry" />
        </mxCell>
        <mxCell id="SdurLJeBYAYdMFXDzEq1-131" value="Mexican - Easy" style="text;html=1;strokeColor=none;fillColor=none;align=center;verticalAlign=middle;whiteSpace=wrap;rounded=0;" parent="SdurLJeBYAYdMFXDzEq1-134" vertex="1">
          <mxGeometry y="120" width="150" height="20" as="geometry" />
        </mxCell>
        <mxCell id="SdurLJeBYAYdMFXDzEq1-132" value="30mins" style="text;html=1;strokeColor=none;fillColor=none;align=center;verticalAlign=middle;whiteSpace=wrap;rounded=0;" parent="SdurLJeBYAYdMFXDzEq1-134" vertex="1">
          <mxGeometry x="150" y="120" width="60" height="20" as="geometry" />
        </mxCell>
        <mxCell id="SdurLJeBYAYdMFXDzEq1-133" value="..." style="ellipse;whiteSpace=wrap;html=1;aspect=fixed;spacingTop=0;verticalAlign=middle;align=center;spacingLeft=0;spacingBottom=12;fontSize=22;fillColor=#FF5555;" parent="SdurLJeBYAYdMFXDzEq1-134" vertex="1">
          <mxGeometry x="186" y="4" width="20" height="20" as="geometry" />
        </mxCell>
        <mxCell id="SdurLJeBYAYdMFXDzEq1-135" value="" style="group" parent="1" vertex="1" connectable="0">
          <mxGeometry x="3420" y="200" width="210" height="250" as="geometry" />
        </mxCell>
        <mxCell id="SdurLJeBYAYdMFXDzEq1-136" value="" style="rounded=0;whiteSpace=wrap;html=1;" parent="SdurLJeBYAYdMFXDzEq1-135" vertex="1">
          <mxGeometry width="210" height="250" as="geometry" />
        </mxCell>
        <mxCell id="SdurLJeBYAYdMFXDzEq1-137" value="" style="rounded=1;whiteSpace=wrap;html=1;strokeWidth=2;fillWeight=4;hachureGap=8;hachureAngle=45;fillColor=#1ba1e2;sketch=1;" parent="SdurLJeBYAYdMFXDzEq1-135" vertex="1">
          <mxGeometry width="210" height="120" as="geometry" />
        </mxCell>
        <mxCell id="SdurLJeBYAYdMFXDzEq1-138" value="Ground Beef with Homemade Taco Seasoning Mix" style="text;html=1;strokeColor=none;fillColor=none;align=center;verticalAlign=middle;whiteSpace=wrap;rounded=0;fontSize=16;" parent="SdurLJeBYAYdMFXDzEq1-135" vertex="1">
          <mxGeometry x="10" y="160" width="190" height="80" as="geometry" />
        </mxCell>
        <mxCell id="SdurLJeBYAYdMFXDzEq1-139" value="Mexican - Easy" style="text;html=1;strokeColor=none;fillColor=none;align=center;verticalAlign=middle;whiteSpace=wrap;rounded=0;" parent="SdurLJeBYAYdMFXDzEq1-135" vertex="1">
          <mxGeometry y="120" width="150" height="20" as="geometry" />
        </mxCell>
        <mxCell id="SdurLJeBYAYdMFXDzEq1-140" value="30mins" style="text;html=1;strokeColor=none;fillColor=none;align=center;verticalAlign=middle;whiteSpace=wrap;rounded=0;" parent="SdurLJeBYAYdMFXDzEq1-135" vertex="1">
          <mxGeometry x="150" y="120" width="60" height="20" as="geometry" />
        </mxCell>
        <mxCell id="SdurLJeBYAYdMFXDzEq1-141" value="..." style="ellipse;whiteSpace=wrap;html=1;aspect=fixed;spacingTop=0;verticalAlign=middle;align=center;spacingLeft=0;spacingBottom=12;fontSize=22;fillColor=#FF5555;" parent="SdurLJeBYAYdMFXDzEq1-135" vertex="1">
          <mxGeometry x="186" y="4" width="20" height="20" as="geometry" />
        </mxCell>
        <mxCell id="SdurLJeBYAYdMFXDzEq1-142" value="" style="group" parent="1" vertex="1" connectable="0">
          <mxGeometry x="3670" y="200" width="210" height="250" as="geometry" />
        </mxCell>
        <mxCell id="SdurLJeBYAYdMFXDzEq1-143" value="" style="rounded=0;whiteSpace=wrap;html=1;" parent="SdurLJeBYAYdMFXDzEq1-142" vertex="1">
          <mxGeometry width="210" height="250" as="geometry" />
        </mxCell>
        <mxCell id="SdurLJeBYAYdMFXDzEq1-144" value="" style="rounded=1;whiteSpace=wrap;html=1;strokeWidth=2;fillWeight=4;hachureGap=8;hachureAngle=45;fillColor=#1ba1e2;sketch=1;" parent="SdurLJeBYAYdMFXDzEq1-142" vertex="1">
          <mxGeometry width="210" height="120" as="geometry" />
        </mxCell>
        <mxCell id="SdurLJeBYAYdMFXDzEq1-145" value="Ground Beef with Homemade Taco Seasoning Mix" style="text;html=1;strokeColor=none;fillColor=none;align=center;verticalAlign=middle;whiteSpace=wrap;rounded=0;fontSize=16;" parent="SdurLJeBYAYdMFXDzEq1-142" vertex="1">
          <mxGeometry x="10" y="160" width="190" height="80" as="geometry" />
        </mxCell>
        <mxCell id="SdurLJeBYAYdMFXDzEq1-146" value="Mexican - Easy" style="text;html=1;strokeColor=none;fillColor=none;align=center;verticalAlign=middle;whiteSpace=wrap;rounded=0;" parent="SdurLJeBYAYdMFXDzEq1-142" vertex="1">
          <mxGeometry y="120" width="150" height="20" as="geometry" />
        </mxCell>
        <mxCell id="SdurLJeBYAYdMFXDzEq1-147" value="30mins" style="text;html=1;strokeColor=none;fillColor=none;align=center;verticalAlign=middle;whiteSpace=wrap;rounded=0;" parent="SdurLJeBYAYdMFXDzEq1-142" vertex="1">
          <mxGeometry x="150" y="120" width="60" height="20" as="geometry" />
        </mxCell>
        <mxCell id="SdurLJeBYAYdMFXDzEq1-148" value="..." style="ellipse;whiteSpace=wrap;html=1;aspect=fixed;spacingTop=0;verticalAlign=middle;align=center;spacingLeft=0;spacingBottom=12;fontSize=22;fillColor=#FF5555;" parent="SdurLJeBYAYdMFXDzEq1-142" vertex="1">
          <mxGeometry x="186" y="4" width="20" height="20" as="geometry" />
        </mxCell>
        <mxCell id="SdurLJeBYAYdMFXDzEq1-149" value="" style="group" parent="1" vertex="1" connectable="0">
          <mxGeometry x="3170" y="490" width="210" height="250" as="geometry" />
        </mxCell>
        <mxCell id="SdurLJeBYAYdMFXDzEq1-150" value="" style="rounded=0;whiteSpace=wrap;html=1;" parent="SdurLJeBYAYdMFXDzEq1-149" vertex="1">
          <mxGeometry width="210" height="250" as="geometry" />
        </mxCell>
        <mxCell id="SdurLJeBYAYdMFXDzEq1-151" value="" style="rounded=1;whiteSpace=wrap;html=1;strokeWidth=2;fillWeight=4;hachureGap=8;hachureAngle=45;fillColor=#1ba1e2;sketch=1;" parent="SdurLJeBYAYdMFXDzEq1-149" vertex="1">
          <mxGeometry width="210" height="120" as="geometry" />
        </mxCell>
        <mxCell id="SdurLJeBYAYdMFXDzEq1-152" value="Ground Beef with Homemade Taco Seasoning Mix" style="text;html=1;strokeColor=none;fillColor=none;align=center;verticalAlign=middle;whiteSpace=wrap;rounded=0;fontSize=16;" parent="SdurLJeBYAYdMFXDzEq1-149" vertex="1">
          <mxGeometry x="10" y="160" width="190" height="80" as="geometry" />
        </mxCell>
        <mxCell id="SdurLJeBYAYdMFXDzEq1-153" value="Mexican - Easy" style="text;html=1;strokeColor=none;fillColor=none;align=center;verticalAlign=middle;whiteSpace=wrap;rounded=0;" parent="SdurLJeBYAYdMFXDzEq1-149" vertex="1">
          <mxGeometry y="120" width="150" height="20" as="geometry" />
        </mxCell>
        <mxCell id="SdurLJeBYAYdMFXDzEq1-154" value="30mins" style="text;html=1;strokeColor=none;fillColor=none;align=center;verticalAlign=middle;whiteSpace=wrap;rounded=0;" parent="SdurLJeBYAYdMFXDzEq1-149" vertex="1">
          <mxGeometry x="150" y="120" width="60" height="20" as="geometry" />
        </mxCell>
        <mxCell id="SdurLJeBYAYdMFXDzEq1-155" value="..." style="ellipse;whiteSpace=wrap;html=1;aspect=fixed;spacingTop=0;verticalAlign=middle;align=center;spacingLeft=0;spacingBottom=12;fontSize=22;fillColor=#FF5555;" parent="SdurLJeBYAYdMFXDzEq1-149" vertex="1">
          <mxGeometry x="186" y="4" width="20" height="20" as="geometry" />
        </mxCell>
        <mxCell id="SdurLJeBYAYdMFXDzEq1-156" value="" style="group" parent="1" vertex="1" connectable="0">
          <mxGeometry x="3420" y="490" width="210" height="250" as="geometry" />
        </mxCell>
        <mxCell id="SdurLJeBYAYdMFXDzEq1-157" value="" style="rounded=0;whiteSpace=wrap;html=1;" parent="SdurLJeBYAYdMFXDzEq1-156" vertex="1">
          <mxGeometry width="210" height="250" as="geometry" />
        </mxCell>
        <mxCell id="SdurLJeBYAYdMFXDzEq1-158" value="" style="rounded=1;whiteSpace=wrap;html=1;strokeWidth=2;fillWeight=4;hachureGap=8;hachureAngle=45;fillColor=#1ba1e2;sketch=1;" parent="SdurLJeBYAYdMFXDzEq1-156" vertex="1">
          <mxGeometry width="210" height="120" as="geometry" />
        </mxCell>
        <mxCell id="SdurLJeBYAYdMFXDzEq1-159" value="Ground Beef with Homemade Taco Seasoning Mix" style="text;html=1;strokeColor=none;fillColor=none;align=center;verticalAlign=middle;whiteSpace=wrap;rounded=0;fontSize=16;" parent="SdurLJeBYAYdMFXDzEq1-156" vertex="1">
          <mxGeometry x="10" y="160" width="190" height="80" as="geometry" />
        </mxCell>
        <mxCell id="SdurLJeBYAYdMFXDzEq1-160" value="Mexican - Easy" style="text;html=1;strokeColor=none;fillColor=none;align=center;verticalAlign=middle;whiteSpace=wrap;rounded=0;" parent="SdurLJeBYAYdMFXDzEq1-156" vertex="1">
          <mxGeometry y="120" width="150" height="20" as="geometry" />
        </mxCell>
        <mxCell id="SdurLJeBYAYdMFXDzEq1-161" value="30mins" style="text;html=1;strokeColor=none;fillColor=none;align=center;verticalAlign=middle;whiteSpace=wrap;rounded=0;" parent="SdurLJeBYAYdMFXDzEq1-156" vertex="1">
          <mxGeometry x="150" y="120" width="60" height="20" as="geometry" />
        </mxCell>
        <mxCell id="SdurLJeBYAYdMFXDzEq1-162" value="..." style="ellipse;whiteSpace=wrap;html=1;aspect=fixed;spacingTop=0;verticalAlign=middle;align=center;spacingLeft=0;spacingBottom=12;fontSize=22;fillColor=#FF5555;" parent="SdurLJeBYAYdMFXDzEq1-156" vertex="1">
          <mxGeometry x="186" y="4" width="20" height="20" as="geometry" />
        </mxCell>
        <mxCell id="SdurLJeBYAYdMFXDzEq1-163" value="" style="group" parent="1" vertex="1" connectable="0">
          <mxGeometry x="3670" y="490" width="210" height="250" as="geometry" />
        </mxCell>
        <mxCell id="SdurLJeBYAYdMFXDzEq1-164" value="" style="rounded=0;whiteSpace=wrap;html=1;" parent="SdurLJeBYAYdMFXDzEq1-163" vertex="1">
          <mxGeometry width="210" height="250" as="geometry" />
        </mxCell>
        <mxCell id="SdurLJeBYAYdMFXDzEq1-165" value="" style="rounded=1;whiteSpace=wrap;html=1;strokeWidth=2;fillWeight=4;hachureGap=8;hachureAngle=45;fillColor=#1ba1e2;sketch=1;" parent="SdurLJeBYAYdMFXDzEq1-163" vertex="1">
          <mxGeometry width="210" height="120" as="geometry" />
        </mxCell>
        <mxCell id="SdurLJeBYAYdMFXDzEq1-166" value="Ground Beef with Homemade Taco Seasoning Mix" style="text;html=1;strokeColor=none;fillColor=none;align=center;verticalAlign=middle;whiteSpace=wrap;rounded=0;fontSize=16;" parent="SdurLJeBYAYdMFXDzEq1-163" vertex="1">
          <mxGeometry x="10" y="160" width="190" height="80" as="geometry" />
        </mxCell>
        <mxCell id="SdurLJeBYAYdMFXDzEq1-167" value="Mexican - Easy" style="text;html=1;strokeColor=none;fillColor=none;align=center;verticalAlign=middle;whiteSpace=wrap;rounded=0;" parent="SdurLJeBYAYdMFXDzEq1-163" vertex="1">
          <mxGeometry y="120" width="150" height="20" as="geometry" />
        </mxCell>
        <mxCell id="SdurLJeBYAYdMFXDzEq1-168" value="30mins" style="text;html=1;strokeColor=none;fillColor=none;align=center;verticalAlign=middle;whiteSpace=wrap;rounded=0;" parent="SdurLJeBYAYdMFXDzEq1-163" vertex="1">
          <mxGeometry x="150" y="120" width="60" height="20" as="geometry" />
        </mxCell>
        <mxCell id="SdurLJeBYAYdMFXDzEq1-169" value="..." style="ellipse;whiteSpace=wrap;html=1;aspect=fixed;spacingTop=0;verticalAlign=middle;align=center;spacingLeft=0;spacingBottom=12;fontSize=22;fillColor=#FF5555;" parent="SdurLJeBYAYdMFXDzEq1-163" vertex="1">
          <mxGeometry x="186" y="4" width="20" height="20" as="geometry" />
        </mxCell>
        <mxCell id="SdurLJeBYAYdMFXDzEq1-170" value="" style="rounded=0;whiteSpace=wrap;html=1;" parent="1" vertex="1">
          <mxGeometry x="3355" y="790" width="380" height="20" as="geometry" />
        </mxCell>
        <mxCell id="SdurLJeBYAYdMFXDzEq1-171" value="" style="triangle;whiteSpace=wrap;html=1;" parent="1" vertex="1">
          <mxGeometry x="3755" y="790" width="30" height="20" as="geometry" />
        </mxCell>
        <mxCell id="SdurLJeBYAYdMFXDzEq1-172" value="" style="triangle;whiteSpace=wrap;html=1;rotation=-180;" parent="1" vertex="1">
          <mxGeometry x="3265" y="790" width="30" height="20" as="geometry" />
        </mxCell>
        <mxCell id="SdurLJeBYAYdMFXDzEq1-173" value="" style="rounded=0;whiteSpace=wrap;html=1;fillColor=#FF5555;strokeColor=#6c8ebf;" parent="1" vertex="1">
          <mxGeometry x="3315" y="790" width="160" height="20" as="geometry" />
        </mxCell>
        <mxCell id="SdurLJeBYAYdMFXDzEq1-178" value="" style="group" parent="1" vertex="1" connectable="0">
          <mxGeometry x="3190" y="110" width="460" height="30" as="geometry" />
        </mxCell>
        <mxCell id="SdurLJeBYAYdMFXDzEq1-74" value="" style="rounded=0;whiteSpace=wrap;html=1;" parent="SdurLJeBYAYdMFXDzEq1-178" vertex="1">
          <mxGeometry width="460" height="30" as="geometry" />
        </mxCell>
        <mxCell id="SdurLJeBYAYdMFXDzEq1-77" value="" style="rounded=0;whiteSpace=wrap;html=1;rotation=45;" parent="SdurLJeBYAYdMFXDzEq1-178" vertex="1">
          <mxGeometry x="14" y="17" width="11" height="3" as="geometry" />
        </mxCell>
        <mxCell id="SdurLJeBYAYdMFXDzEq1-76" value="" style="ellipse;shape=doubleEllipse;whiteSpace=wrap;html=1;aspect=fixed;movable=1;resizable=1;rotatable=1;deletable=1;editable=1;locked=0;connectable=1;" parent="SdurLJeBYAYdMFXDzEq1-178" vertex="1">
          <mxGeometry x="7" y="5.810000000000002" width="12" height="12" as="geometry" />
        </mxCell>
        <mxCell id="SdurLJeBYAYdMFXDzEq1-182" value="Watson Cookbooks" style="text;html=1;strokeColor=none;fillColor=none;align=center;verticalAlign=middle;whiteSpace=wrap;rounded=0;fontSize=15;fontColor=#FFFFFF;fontStyle=1" parent="1" vertex="1">
          <mxGeometry y="80" width="160" height="30" as="geometry" />
        </mxCell>
        <mxCell id="SdurLJeBYAYdMFXDzEq1-183" value="Watson Cookbooks" style="text;html=1;strokeColor=none;fillColor=none;align=center;verticalAlign=middle;whiteSpace=wrap;rounded=0;fontSize=15;fontColor=#FFFFFF;fontStyle=1" parent="1" vertex="1">
          <mxGeometry x="1360" y="80" width="160" height="30" as="geometry" />
        </mxCell>
        <mxCell id="SdurLJeBYAYdMFXDzEq1-184" value="Watson Cookbooks" style="text;html=1;strokeColor=none;fillColor=none;align=center;verticalAlign=middle;whiteSpace=wrap;rounded=0;fontSize=15;fontColor=#FFFFFF;fontStyle=1" parent="1" vertex="1">
          <mxGeometry x="2720" y="80" width="160" height="30" as="geometry" />
        </mxCell>
        <mxCell id="SdurLJeBYAYdMFXDzEq1-185" value="" style="rounded=0;whiteSpace=wrap;html=1;" parent="1" vertex="1">
          <mxGeometry y="960" width="1080" height="810" as="geometry" />
        </mxCell>
        <mxCell id="SdurLJeBYAYdMFXDzEq1-186" value="" style="rounded=0;whiteSpace=wrap;html=1;" parent="1" vertex="1">
          <mxGeometry x="1200" y="960" width="370" height="810" as="geometry" />
        </mxCell>
        <mxCell id="SdurLJeBYAYdMFXDzEq1-187" value="" style="rounded=0;whiteSpace=wrap;html=1;" parent="1" vertex="1">
          <mxGeometry x="1680" y="960" width="1080" height="810" as="geometry" />
        </mxCell>
        <mxCell id="SdurLJeBYAYdMFXDzEq1-188" value="" style="rounded=0;whiteSpace=wrap;html=1;" parent="1" vertex="1">
          <mxGeometry x="2880" y="960" width="370" height="810" as="geometry" />
        </mxCell>
        <mxCell id="SdurLJeBYAYdMFXDzEq1-189" value="" style="rounded=0;whiteSpace=wrap;html=1;" parent="1" vertex="1">
          <mxGeometry x="3355" y="960" width="1080" height="810" as="geometry" />
        </mxCell>
        <mxCell id="SdurLJeBYAYdMFXDzEq1-190" value="" style="rounded=0;whiteSpace=wrap;html=1;" parent="1" vertex="1">
          <mxGeometry x="4555" y="960" width="370" height="810" as="geometry" />
        </mxCell>
        <mxCell id="SdurLJeBYAYdMFXDzEq1-191" value="" style="rounded=0;whiteSpace=wrap;html=1;" parent="1" vertex="1">
          <mxGeometry x="-1200" y="180" width="1040" height="670" as="geometry" />
        </mxCell>
        <mxCell id="SdurLJeBYAYdMFXDzEq1-193" value="&lt;font style=&quot;font-size: 19px;&quot;&gt;New Recipe&lt;/font&gt;" style="text;html=1;strokeColor=none;fillColor=none;align=center;verticalAlign=middle;whiteSpace=wrap;rounded=0;fontSize=31;" parent="1" vertex="1">
          <mxGeometry x="-1180" y="190" width="180" height="30" as="geometry" />
        </mxCell>
        <mxCell id="zGY3EzD7wtFvwdUS_VMW-21" value="" style="rounded=0;whiteSpace=wrap;html=1;" parent="1" vertex="1">
          <mxGeometry x="-830" y="180" width="310" height="670" as="geometry" />
        </mxCell>
        <mxCell id="SdurLJeBYAYdMFXDzEq1-200" value="" style="rounded=0;whiteSpace=wrap;html=1;" parent="1" vertex="1">
          <mxGeometry x="-210" y="215" width="20" height="595" as="geometry" />
        </mxCell>
        <mxCell id="zGY3EzD7wtFvwdUS_VMW-5" value="Name: __________________________" style="text;html=1;strokeColor=none;fillColor=none;align=left;verticalAlign=middle;whiteSpace=wrap;rounded=0;fontSize=18;" parent="1" vertex="1">
          <mxGeometry x="-1180" y="257" width="350" height="30" as="geometry" />
        </mxCell>
        <mxCell id="zGY3EzD7wtFvwdUS_VMW-9" value="Images:" style="text;html=1;strokeColor=none;fillColor=none;align=left;verticalAlign=middle;whiteSpace=wrap;rounded=0;fontSize=18;" parent="1" vertex="1">
          <mxGeometry x="-1180" y="490" width="350" height="30" as="geometry" />
        </mxCell>
        <mxCell id="zGY3EzD7wtFvwdUS_VMW-10" value="" style="rounded=0;whiteSpace=wrap;html=1;" parent="1" vertex="1">
          <mxGeometry x="-1180" y="524" width="120" height="120" as="geometry" />
        </mxCell>
        <mxCell id="zGY3EzD7wtFvwdUS_VMW-11" value="" style="group;fontStyle=0;strokeWidth=5;strokeColor=none;" parent="1" vertex="1" connectable="0">
          <mxGeometry x="-1140" y="565" width="36.5" height="36.5" as="geometry" />
        </mxCell>
        <mxCell id="zGY3EzD7wtFvwdUS_VMW-12" value="" style="endArrow=none;html=1;rounded=1;strokeWidth=3;strokeColor=#DD1111;" parent="zGY3EzD7wtFvwdUS_VMW-11" edge="1">
          <mxGeometry width="50" height="50" relative="1" as="geometry">
            <mxPoint x="-10" y="17.75" as="sourcePoint" />
            <mxPoint x="46" y="17.75" as="targetPoint" />
          </mxGeometry>
        </mxCell>
        <mxCell id="zGY3EzD7wtFvwdUS_VMW-13" value="" style="endArrow=none;html=1;rounded=1;strokeWidth=3;strokeColor=#DD1111;" parent="zGY3EzD7wtFvwdUS_VMW-11" edge="1">
          <mxGeometry width="50" height="50" relative="1" as="geometry">
            <mxPoint x="17.750000000000004" y="-10" as="sourcePoint" />
            <mxPoint x="17.750000000000004" y="46" as="targetPoint" />
          </mxGeometry>
        </mxCell>
        <mxCell id="zGY3EzD7wtFvwdUS_VMW-14" value="Ingredients" style="text;html=1;strokeColor=#b85450;fillColor=#FFAAAA;align=center;verticalAlign=middle;whiteSpace=wrap;rounded=0;fontSize=22;" parent="1" vertex="1">
          <mxGeometry x="-830" y="180" width="310" height="51" as="geometry" />
        </mxCell>
        <mxCell id="zGY3EzD7wtFvwdUS_VMW-15" value="Directions" style="text;html=1;strokeColor=none;fillColor=none;align=center;verticalAlign=middle;whiteSpace=wrap;rounded=0;fontSize=22;" parent="1" vertex="1">
          <mxGeometry x="-520" y="180" width="360" height="50" as="geometry" />
        </mxCell>
        <mxCell id="zGY3EzD7wtFvwdUS_VMW-16" value="" style="rounded=0;whiteSpace=wrap;html=1;" parent="1" vertex="1">
          <mxGeometry x="-790" y="283" width="15" height="15" as="geometry" />
        </mxCell>
        <mxCell id="zGY3EzD7wtFvwdUS_VMW-17" value="Add New" style="text;html=1;strokeColor=none;fillColor=none;align=left;verticalAlign=middle;whiteSpace=wrap;rounded=0;fontSize=15;" parent="1" vertex="1">
          <mxGeometry x="-760" y="275.5" width="100" height="30" as="geometry" />
        </mxCell>
        <mxCell id="zGY3EzD7wtFvwdUS_VMW-18" value="" style="rounded=0;whiteSpace=wrap;html=1;" parent="1" vertex="1">
          <mxGeometry x="-500" y="283" width="15" height="15" as="geometry" />
        </mxCell>
        <mxCell id="zGY3EzD7wtFvwdUS_VMW-19" value="Add New" style="text;html=1;strokeColor=none;fillColor=none;align=left;verticalAlign=middle;whiteSpace=wrap;rounded=0;fontSize=15;" parent="1" vertex="1">
          <mxGeometry x="-470" y="275.5" width="100" height="30" as="geometry" />
        </mxCell>
        <mxCell id="zGY3EzD7wtFvwdUS_VMW-20" value="..." style="ellipse;whiteSpace=wrap;html=1;aspect=fixed;spacingTop=0;verticalAlign=middle;align=center;spacingLeft=0;spacingBottom=12;fontSize=22;fillColor=#FF5555;" parent="1" vertex="1">
          <mxGeometry x="2290" y="170" width="20" height="20" as="geometry" />
        </mxCell>
        <mxCell id="zGY3EzD7wtFvwdUS_VMW-23" value="Tags:" style="text;html=1;strokeColor=none;fillColor=none;align=left;verticalAlign=middle;whiteSpace=wrap;rounded=0;fontSize=18;" parent="1" vertex="1">
          <mxGeometry x="-1180" y="298" width="350" height="30" as="geometry" />
        </mxCell>
        <mxCell id="zGY3EzD7wtFvwdUS_VMW-24" value="Add new" style="text;html=1;strokeColor=none;fillColor=none;align=center;verticalAlign=middle;whiteSpace=wrap;rounded=0;" parent="1" vertex="1">
          <mxGeometry x="-1163.5" y="340" width="60" height="30" as="geometry" />
        </mxCell>
        <mxCell id="zGY3EzD7wtFvwdUS_VMW-25" value="" style="rounded=0;whiteSpace=wrap;html=1;" parent="1" vertex="1">
          <mxGeometry y="850" width="120" height="60" as="geometry" />
        </mxCell>
      </root>
    </mxGraphModel>
  </diagram>
</mxfile>
